<?xml version="1.0" encoding="UTF-8"?><svg id="Layer_1" xmlns="http://www.w3.org/2000/svg" viewBox="0 0 967.22 977.27"><path d="M659,943.16c-123.86,49.48-257.06,44.86-377.69-12.13-53.45-25.25-101.42-60.32-142.62-102.47C63.91,752.04,15.81,653.49,3.27,547.11c-1.58-13.44-2.13-25-2.74-38.5-3.64-81.15,11.59-162.18,46.66-235.84,31.33-65.81,77.47-123.77,134.58-168.87,45.79-36.16,96.97-63.76,152.4-81.42C396.81,2.51,452.19-2.75,517.9,1.24c91.72,5.58,179.3,37.93,253.51,92.33,69.18,50.71,123.77,120.04,157.09,199.09,23.73,56.32,36.24,115.84,38.41,176.59,4.69,131.32-42.5,259.09-133.24,354.07-25.81,27.02-53.74,51.39-85,72.2-28.61,19.05-57.72,34.87-89.67,47.64h.01-.01ZM307.09,526.67l150.57-.22.39,239.31.55,66.46,23.98,26.19,25.51-28.17-.07-444.13h281.86v266.47l-84.63,84.93-210.98,211.35c-1.52,1.31-2.31,2.34-.36,1.84,113.77-1.99,222.42-51.11,303.66-128.52,89.27-85.04,141.09-201.32,143.39-324.79,1.28-68.58-11.35-135.68-38.78-198.64-51.66-118.58-152.64-210.29-276.07-249.78-52.78-16.88-107.5-24.09-163.15-22.2-79.92,2.71-157.02,27.37-224.43,69.6C110.49,176.54,31.04,316.51,26.42,467.4c-.4,12.91-.45,24.65,0,37.86,3.08,90.5,32.4,177.7,85.71,251.11,61.52,84.72,145.33,144.68,245.51,175.38,36.25,10.93,72.37,17.55,109.5,18.97l-298.47-298.51.07-254.21c0-4.34.48-7.74,1.03-11.95l287.87.02.06,77.96h-201.53l.04,172.14,116.7,116.55.22-155.68-66.07-70.35.03-.02h0ZM704.65,636.15l-.04-172.12-115.51.12.04,287.74,19.88-19.87,95.63-95.87h0Z" fill="#ffffff"/><path d="M557.67,344.27l-30.29.3-5.35-57.21-13.51.14-10.53,56.81-28.65.06,27.91-152.86,63.49-.16c11-.02,17.74,7.8,18.21,18.69l-9.63,54.07c-1.79,10.05-8.49,17.55-17.96,20.01l6.32,60.14h-.01ZM542.24,256.81l6.47-38.95-27.51-.36-8.14,44.04,22.17.19c2.84.02,6.56-2.04,7.03-4.91h-.02Z" fill="#ffffff"/><path d="M198.25,317.82c9.34.29,29.24,4.16,30.74-4.59l4.79-27.97-13.92-.34,4.38-24.37,42.53.26-11.62,63.6c-1.97,10.78-12,19.27-22.99,19.73-15.7.64-30.76.6-46.44.06-11.14-.39-18.4-11.12-16.42-22.36l19.68-111.74c1.78-10.1,10.79-18.58,21.1-18.61l48.53-.13c9.72-.02,17.83,8.27,16.6,18.61-1.17,9.84-3.3,19.31-5.13,29.22h-27.7l1.64-10.17c.62-3.82.91-7.12.94-11.35l-23.6-.25c-1.31,0-4.89,1.53-5.2,3.25l-17.93,97.17h0l.02-.02Z" fill="#ffffff"/><path d="M688.28,191.47l-24,131.44c-2.12,11.61-11.29,20.6-23.35,21.17-15.82.76-31.35.53-47.31.2-6.23-.13-12.58-4.66-14.18-10.43-1.69-6.12-1.25-12.41-.09-18.82l22.45-123.65,29.05.08-23.18,126.67,23.84.39c1.44.02,4.96-2.11,5.23-3.62l22.26-123.28,29.28-.15h0Z" fill="#ffffff"/><path d="M457.31,344.11l-30.94.42-.69-32.43h-29.02l-12.41,32.3-29.94-.34,60.67-152.59,36.74-.18.83,17.47,1.01,31.12,1.17,37.99,1.14,32.15,1.46,34.07h-.02v.02ZM426.06,284.84l-.8-52.74-19.61,52.74h20.41,0Z" fill="#ffffff"/><path d="M752.63,287.45l-34.01.22-10.71,56.74-28.83-.15,28-152.81,62.73-.21c11.18-.04,17.77,7.29,18.15,18.93l-10.13,55.77c-2.2,12.1-12.47,21.43-25.19,21.51h0ZM751.25,256.08l6.21-34.03c.16-.93-.27-3.54-1.12-3.93-.64-.28-2.48-.67-3.22-.66l-22.34.18-8.03,43.79c8.65-.49,26.63,4.98,28.52-5.37h-.01v.02Z" fill="#ffffff"/><polygon points="353.32 253.8 348.17 280.41 308.85 280.53 302.13 317.62 346.82 317.87 341.87 344.54 268.21 344.48 296.62 191.4 371.05 191.36 365.93 218.61 334.25 218.34 320.57 218.22 313.81 253.57 353.32 253.8" fill="#ffffff"/></svg>